<?xml version="1.0" standalone="no"?>
<!DOCTYPE svg PUBLIC "-//W3C//DTD SVG 20010904//EN"
 "http://www.w3.org/TR/2001/REC-SVG-20010904/DTD/svg10.dtd">
<svg version="1.0" xmlns="http://www.w3.org/2000/svg"
 width="170.000000pt" height="170.000000pt" viewBox="0 0 170.000000 170.000000"
 preserveAspectRatio="xMidYMid meet">
<metadata>
Created by potrace 1.11, written by Peter Selinger 2001-2013
</metadata>
<g transform="translate(0.000000,170.000000) scale(0.100000,-0.100000)"
fill="#000000" stroke="none">
<path d="M686 1684 c-271 -59 -478 -219 -605 -471 -17 -35 -29 -63 -27 -63 3
0 -1 -15 -9 -34 -8 -18 -16 -44 -19 -57 -3 -13 -9 -46 -15 -74 -16 -77 -6
-268 19 -353 84 -295 294 -511 580 -597 77 -23 131 -30 235 -30 126 0 190 10
285 44 211 78 366 210 468 401 71 133 97 241 97 405 0 144 -21 243 -75 354
-110 227 -297 386 -535 456 -112 33 -291 42 -399 19z"/>
</g>
</svg>
