<svg width="32" height="32" viewBox="0 0 32 32" fill="none" xmlns="http://www.w3.org/2000/svg">
<path d="M16 32C24.8366 32 32 24.8366 32 16C32 7.16344 24.8366 0 16 0C7.16344 0 0 7.16344 0 16C0 24.8366 7.16344 32 16 32Z" fill="#E2F1FF"/>
<g clip-path="url(#clip0)">
<path d="M23.5625 14.0833C23.3178 14.0833 23.0776 14.1099 22.8457 14.1585C22.5368 11.0336 19.8922 8.58333 16.6875 8.58333C16.308 8.58333 16 8.89133 16 9.27083V20.2708C16 20.6503 16.308 20.9583 16.6875 20.9583H23.5625C25.4591 20.9583 27 19.4174 27 17.5208C27 15.6261 25.4591 14.0833 23.5625 14.0833Z" fill="#0376FE"/>
<path d="M13.25 10.6458V20.2708C13.25 20.6503 13.558 20.9583 13.9375 20.9583C14.317 20.9583 14.625 20.6503 14.625 20.2708V10.6458C14.625 10.2663 14.317 9.95834 13.9375 9.95834C13.558 9.95834 13.25 10.2663 13.25 10.6458Z" fill="#0376FE"/>
<path d="M10.5 13.3958V20.2708C10.5 20.6503 10.808 20.9583 11.1875 20.9583C11.567 20.9583 11.875 20.6503 11.875 20.2708V13.3958C11.875 13.0163 11.567 12.7083 11.1875 12.7083C10.808 12.7083 10.5 13.0163 10.5 13.3958Z" fill="#0376FE"/>
<path d="M7.75 20.2708C7.75 20.6503 8.058 20.9583 8.4375 20.9583C8.817 20.9583 9.125 20.6503 9.125 20.2708V13.3958C9.125 13.0163 8.817 12.7083 8.4375 12.7083C8.058 12.7083 7.75 13.0163 7.75 13.3958V20.2708Z" fill="#0376FE"/>
<path d="M5.6875 20.9583C6.067 20.9583 6.375 20.6503 6.375 20.2708V16.1458C6.375 15.7663 6.067 15.4583 5.6875 15.4583C5.308 15.4583 5 15.7663 5 16.1458V20.2708C5 20.6503 5.308 20.9583 5.6875 20.9583Z" fill="#0376FE"/>
</g>
<defs>
<clipPath id="clip0">
<rect width="22" height="22" fill="white" transform="translate(5 4)"/>
</clipPath>
</defs>
</svg>
